<svg width="50" height="60" viewBox="0 0 50 60" fill="none" xmlns="http://www.w3.org/2000/svg">
<path d="M48.913 60H1.08696C0.798677 60 0.522206 59.8834 0.318362 59.6759C0.114518 59.4684 0 59.1869 0 58.8934V1.1066C0 0.813113 0.114518 0.531645 0.318362 0.324117C0.522206 0.116588 0.798677 0 1.08696 0H36.1956C36.3384 0.00350117 36.479 0.0355991 36.6096 0.0944602C36.7401 0.153321 36.858 0.237792 36.9565 0.343047L49.6739 13.7551C49.8735 13.9539 49.9902 14.2234 49.9999 14.5076V58.8823C50.0014 59.0286 49.9743 59.1737 49.9203 59.3092C49.8664 59.4447 49.7865 59.568 49.6855 59.672C49.5844 59.7759 49.4641 59.8584 49.3315 59.9147C49.1989 59.971 49.0566 60 48.913 60ZM2.17391 57.7868H47.826V14.9613L35.7391 2.21321H2.17391V57.7868Z" fill="#004080"/>
<path d="M36.1956 15.6142C35.9073 15.6142 35.6308 15.4976 35.427 15.29C35.2232 15.0825 35.1086 14.8011 35.1086 14.5076V1.1066C35.1086 0.813113 35.2232 0.531645 35.427 0.324117C35.6308 0.116588 35.9073 0 36.1956 0C36.4839 0 36.7603 0.116588 36.9642 0.324117C37.168 0.531645 37.2826 0.813113 37.2826 1.1066V14.5076C37.2826 14.8011 37.168 15.0825 36.9642 15.29C36.7603 15.4976 36.4839 15.6142 36.1956 15.6142Z" fill="#004080"/>
<path d="M42.3912 15.6142H36.1956C35.9073 15.6142 35.6309 15.4976 35.427 15.2901C35.2232 15.0825 35.1086 14.8011 35.1086 14.5076C35.1086 14.2141 35.2232 13.9326 35.427 13.7251C35.6309 13.5176 35.9073 13.401 36.1956 13.401H42.3912C42.6795 13.401 42.956 13.5176 43.1598 13.7251C43.3637 13.9326 43.4782 14.2141 43.4782 14.5076C43.4782 14.8011 43.3637 15.0825 43.1598 15.2901C42.956 15.4976 42.6795 15.6142 42.3912 15.6142ZM21.8369 23.2055H8.89129C8.60301 23.2055 8.32654 23.0889 8.12269 22.8813C7.91885 22.6738 7.80433 22.3924 7.80433 22.0989V8.97455C7.80433 8.68106 7.91885 8.3996 8.12269 8.19207C8.32654 7.98454 8.60301 7.86795 8.89129 7.86795H21.8369C22.1252 7.86795 22.4017 7.98454 22.6055 8.19207C22.8094 8.3996 22.9239 8.68106 22.9239 8.97455V22.0989C22.9239 22.3924 22.8094 22.6738 22.6055 22.8813C22.4017 23.0889 22.1252 23.2055 21.8369 23.2055ZM9.97824 20.9923H20.75V10.0812H9.97824V20.9923ZM41.1304 32.2132H8.86955C8.58127 32.2132 8.3048 32.0966 8.10095 31.8891C7.89711 31.6816 7.78259 31.4001 7.78259 31.1066C7.78259 30.8131 7.89711 30.5317 8.10095 30.3241C8.3048 30.1166 8.58127 30 8.86955 30H41.1304C41.4187 30 41.6951 30.1166 41.899 30.3241C42.1028 30.5317 42.2173 30.8131 42.2173 31.1066C42.2173 31.4001 42.1028 31.6816 41.899 31.8891C41.6951 32.0966 41.4187 32.2132 41.1304 32.2132ZM41.1304 40.9H8.86955C8.58127 40.9 8.3048 40.7835 8.10095 40.5759C7.89711 40.3684 7.78259 40.0869 7.78259 39.7934C7.78259 39.4999 7.89711 39.2185 8.10095 39.011C8.3048 38.8034 8.58127 38.6868 8.86955 38.6868H41.1304C41.4187 38.6868 41.6951 38.8034 41.899 39.011C42.1028 39.2185 42.2173 39.4999 42.2173 39.7934C42.2173 40.0869 42.1028 40.3684 41.899 40.5759C41.6951 40.7835 41.4187 40.9 41.1304 40.9ZM41.1304 49.5979H8.86955C8.58127 49.5979 8.3048 49.4814 8.10095 49.2738C7.89711 49.0663 7.78259 48.7848 7.78259 48.4913C7.78259 48.1978 7.89711 47.9164 8.10095 47.7089C8.3048 47.5013 8.58127 47.3847 8.86955 47.3847H41.1304C41.4187 47.3847 41.6951 47.5013 41.899 47.7089C42.1028 47.9164 42.2173 48.1978 42.2173 48.4913C42.2173 48.7848 42.1028 49.0663 41.899 49.2738C41.6951 49.4814 41.4187 49.5979 41.1304 49.5979Z" fill="#004080"/>
</svg>
