<svg width="60" height="54" viewBox="0 0 60 54" fill="none" xmlns="http://www.w3.org/2000/svg">
<path d="M45.0031 0.0489944C42.2273 0.0489944 39.6343 0.820354 37.402 2.13999C20.1183 -5.43777 -0.303111 8.10923 0.00340926 27.0493C1.48534 62.8663 52.5247 62.8594 54.0031 27.049C65.3828 18.4356 59.4519 0.149884 45.0031 0.0489944ZM27.0031 52.049C13.2179 52.049 2.00311 40.8342 2.00311 27.049C1.67474 10.103 19.6368 -2.48159 35.4155 3.52536C34.1493 4.5806 33.0713 5.84769 32.2081 7.26041C24.5027 3.31955 14.8468 9.36826 15.0032 18.0492C15.0031 23.639 18.8331 28.339 24.0031 29.669V30.369C17.7231 31.749 13.0031 37.359 13.0031 44.049C13.0031 44.599 13.4531 45.049 14.0031 45.049H40.0031C40.5531 45.049 41.0031 44.599 41.0031 44.049C41.0031 37.359 36.2831 31.749 30.0031 30.369V29.669C32.084 29.1336 33.9433 28.0487 35.4261 26.5823C39.7141 30.3597 46.9089 31.1662 51.9708 28.321C51.3063 41.5174 40.3617 52.049 27.0031 52.049ZM27.0031 28.049C21.4931 28.049 17.0031 23.559 17.0031 18.049C16.8303 10.8847 24.9153 5.78929 31.2724 9.03196C28.8281 14.2326 30.0685 21.1553 33.9698 25.176C32.1672 26.9421 29.7179 28.049 27.0031 28.049ZM28.0031 30.049V31.049C28.0031 31.599 27.5531 32.049 27.0031 32.049C26.4531 32.049 26.0031 31.599 26.0031 31.049V30.049H28.0031ZM55.1242 14.1701L46.1242 23.1701C45.0077 24.3338 42.9985 24.3342 41.882 23.17C41.882 23.1701 36.882 18.1701 36.882 18.1701C34.1591 15.3025 38.2535 11.2028 41.1243 13.928C41.1242 13.9279 44.0031 16.8068 44.0031 16.8068L50.882 9.92789C53.7513 7.20371 57.8484 11.3011 55.1242 14.1701Z" fill="#004080"/>
</svg>
