<svg width="80" height="60" viewBox="0 0 80 60" fill="none" xmlns="http://www.w3.org/2000/svg">
<path d="M79.1667 36.203H74.1667V33.5383V4.33236V1.76471H79.1667C79.6267 1.76471 80 1.36941 80 0.882354C80 0.395294 79.6267 0 79.1667 0H73.3333C72.8733 0 72.5 0.395294 72.5 0.882354V3.45H70C69.54 3.45 69.1667 3.84525 69.1667 4.33236V6.98824H53.4908C51.5992 6.19853 49.7959 5.26059 48.2 4.4303C44.8642 2.69559 42.2167 1.32618 39.9875 1.72677C37.7675 1.34735 35.1308 2.70265 31.8134 4.42677C30.2142 5.2579 28.4067 6.19677 26.5092 6.98824H10.8333V4.33236C10.8333 3.84525 10.46 3.45 10 3.45H7.5V0.882354C7.5 0.395294 7.12667 0 6.66667 0H0.833333C0.373333 0 0 0.395294 0 0.882354C0 1.36941 0.373333 1.76471 0.833333 1.76471H5.83333V4.33236V33.5383V36.203H0.833333C0.373333 36.203 0 36.5983 0 37.0853C0 37.5724 0.373333 37.9677 0.833333 37.9677H6.66667C7.12667 37.9677 7.5 37.5724 7.5 37.0853V34.4206H10C10.46 34.4206 10.8333 34.0253 10.8333 33.5383V30.8594L13.39 30.8709C13.54 31.5706 13.9158 32.6118 14.6758 34.1841L14.5992 34.2582C14.53 34.3244 14.4725 34.402 14.4275 34.4885C14.0558 35.2085 13.8583 36.0265 13.8583 36.8541C13.8583 38.0285 14.2558 39.1624 14.9741 40.0465C15.7708 41.0338 16.8816 41.6303 18.1008 41.7265C18.2158 41.7353 18.33 41.7397 18.445 41.7397C18.7792 41.7397 19.1058 41.6885 19.4266 41.6126C19.36 41.947 19.3167 42.2885 19.3167 42.6344C19.3167 43.8097 19.7142 44.9435 20.4325 45.8259C21.2291 46.8141 22.3392 47.4106 23.5583 47.5068C23.6733 47.5156 23.7883 47.5199 23.9025 47.5199C23.9983 47.5199 24.0917 47.4997 24.1867 47.4926C23.9917 48.0406 23.8825 48.6256 23.8825 49.2255C23.8825 50.4062 24.28 51.5435 24.9983 52.4259C25.7983 53.4185 26.9125 54.0159 28.1358 54.1103C28.2483 54.1191 28.36 54.1235 28.4717 54.1235C28.8042 54.1235 29.1291 54.0732 29.4492 53.9973C29.3833 54.33 29.3408 54.6697 29.3408 55.0147C29.3408 56.1838 29.7342 57.3167 30.45 58.2088C31.395 59.3726 33.07 60 34.1667 60C35.0717 60 35.9992 59.565 36.935 58.6968L39.9384 55.8088L43.0758 58.7073C43.9158 59.4855 44.9683 59.9038 46.07 59.9038C46.1792 59.9038 46.2892 59.9003 46.3992 59.8915C47.625 59.7997 48.7433 59.2015 49.5517 58.2053C50.265 57.3176 50.6583 56.1838 50.6583 55.0147C50.6583 54.6706 50.6233 54.3317 50.5583 54.0018C50.8758 54.0759 51.1991 54.1262 51.53 54.1262C51.6408 54.1262 51.7525 54.1218 51.8641 54.1129C53.0867 54.0194 54.2008 53.4212 54.9983 52.4312C55.7191 51.5436 56.1158 50.4053 56.1158 49.2265C56.1158 48.6327 56.015 48.0521 55.8258 47.5121C56.0258 47.5244 56.2275 47.5236 56.4308 47.5077C57.6525 47.4141 58.7658 46.8186 59.5633 45.8321C60.2849 44.9454 60.6816 43.8097 60.6816 42.6354C60.6816 42.293 60.6483 41.9551 60.5841 41.6268C61.0108 41.7247 61.4533 41.7583 61.8991 41.723C63.1175 41.6277 64.2266 41.0339 65.0225 40.0509C65.7433 39.1633 66.1408 38.0286 66.1408 36.855C66.1408 35.8773 65.8541 34.9368 65.3475 34.1338C66.0916 32.5879 66.4608 31.5627 66.6091 30.87L69.1666 30.8594V33.5382C69.1666 34.0253 69.54 34.4206 70 34.4206H72.5V37.0853C72.5 37.5723 72.8733 37.9676 73.3333 37.9676H79.1666C79.6266 37.9676 80 37.5723 80 37.0853C80 36.5982 79.6267 36.203 79.1667 36.203ZM9.16667 7.87059V29.9735V32.6559H7.5V5.21471H9.16667V7.87059ZM20.345 39.2162C19.7541 39.7598 18.9983 40.0253 18.225 39.9653C17.4525 39.9044 16.7483 39.5259 16.24 38.8959C15.7792 38.3295 15.5258 37.6041 15.5258 36.8533C15.5258 36.368 15.63 35.8889 15.83 35.4583L22.935 28.6324L24.4317 27.1977C25.1517 26.9622 27.0025 26.7327 28.0525 28.8151C28.57 30.0036 28.3592 31.4621 27.4167 32.4133L20.345 39.2162ZM23.6825 45.7465C22.91 45.6857 22.2067 45.3071 21.6983 44.6762C21.2375 44.1106 20.9842 43.3862 20.9842 42.6344C20.9842 42.1315 21.0958 41.6383 21.3075 41.2006L29.1733 33.6327C30.1017 33.2877 31.3633 33.33 32.3567 34.3994C32.73 34.8247 32.9592 35.3356 33.0675 35.8686C32.9675 36.4686 33.68 36.8444 32.225 38.8174L25.8034 44.9974C25.2117 45.5409 24.4617 45.8065 23.6825 45.7465ZM30.3675 51.5991C29.78 52.1436 29.0308 52.4118 28.2567 52.351C27.4817 52.2909 26.775 51.9107 26.2634 51.2771C25.8025 50.7115 25.5492 49.9827 25.5492 49.2256C25.5492 48.525 25.765 47.8501 26.1584 47.3198L34.2851 39.4862C34.4267 39.4033 34.3726 39.4068 34.7934 39.1968C35.7068 38.8042 36.8092 38.9401 37.6284 39.5709C37.6642 39.6 37.6967 39.6354 37.7317 39.6662C37.8318 39.7518 37.9326 39.8365 38.0218 39.9371C38.8143 40.8442 38.996 42.1245 38.6034 43.2142C38.5867 43.2601 38.5793 43.3086 38.5601 43.3536C38.5484 43.3818 38.5293 43.4074 38.5167 43.4356C38.3642 43.7753 38.1584 44.0948 37.8859 44.3665C37.8826 44.37 37.881 44.3753 37.8768 44.3788L30.3675 51.5991ZM35.8258 57.3803C35.2141 57.9477 34.6558 58.2353 34.1667 58.2353C33.555 58.2353 32.3292 57.8162 31.7183 57.0627C31.2609 56.4927 31.0083 55.7665 31.0083 55.0156C31.0083 54.5215 31.115 54.0406 31.3175 53.6153L39.6592 45.5833C40.555 45.4756 41.0383 44.6612 43.1133 46.7294C43.3675 47.13 43.5275 47.58 43.5817 48.0539C43.5817 48.0591 43.5825 48.0644 43.5833 48.0697C43.5833 48.0706 43.5842 48.0723 43.5842 48.0732C43.585 48.1297 43.59 48.1862 43.6016 48.2418C43.6016 48.2497 43.6025 48.2585 43.6033 48.2665C43.6775 49.2053 43.3458 50.1203 42.695 50.7759L35.8258 57.3803ZM43.6 48.18H43.6067C43.6067 48.1818 43.6075 48.1836 43.6075 48.1844C43.6075 48.1871 43.6067 48.1897 43.6067 48.1923H43.6C43.6 48.1862 43.6 48.1818 43.6 48.18ZM48.2842 57.0592C47.7708 57.6918 47.0592 58.073 46.2809 58.1321C45.5059 58.1877 44.7592 57.923 44.1725 57.3786L41.2384 54.6671L43.8409 52.0562C44.1567 51.7342 44.83 50.8826 45.0759 49.9562L47.9859 52.6421C48.625 53.2324 48.9917 54.0971 48.9917 55.0148C48.9917 55.7665 48.74 56.4927 48.2842 57.0592ZM63.7591 38.9021C63.2541 39.5259 62.55 39.9026 61.7783 39.9636C61.005 40.0227 60.2466 39.7597 59.6608 39.2215L47.2192 27.5745C46.8742 27.2515 46.35 27.285 46.0459 27.6477C45.74 28.0094 45.7684 28.5653 46.1092 28.89L58.0109 40.2644C58.6509 40.8547 59.0175 41.7194 59.0175 42.6353C59.0175 43.3871 58.7634 44.1133 58.3017 44.6815C57.7942 45.3089 57.0875 45.6874 56.3125 45.7474C55.5417 45.8109 54.7875 45.5409 54.195 44.9939L43.8784 35.5791C43.5317 35.2624 43.0076 35.3021 42.7067 35.6674C42.405 36.0336 42.4392 36.5877 42.7834 36.9088L53.4485 46.8768C54.0859 47.46 54.4517 48.3159 54.4517 49.2265C54.4517 49.9836 54.1976 50.7133 53.7351 51.2833C53.2267 51.9142 52.5209 52.2944 51.7459 52.3536C50.9717 52.4171 50.2234 52.1454 49.6251 51.5894L45.206 47.6118C44.9242 46.7233 45.1792 46.703 44.0551 45.15C43.5617 44.5862 42.966 44.1706 42.3117 43.9103C41.9817 43.8079 41.9109 43.6897 40.2442 43.628C40.5334 42.2241 40.7725 40.6023 39.2434 38.7326C38.3642 37.7391 37.1775 37.1912 35.9017 37.1912C35.7775 37.1938 35.4176 37.2 34.7467 37.3456C34.7334 36.7112 35.0134 35.8323 34.1584 34.0235C33.9251 33.6371 34.1434 33.9812 33.5734 33.187C33.5126 33.1182 33.5084 33.1253 33.2134 32.8288C32.5001 32.2518 31.6893 31.695 30.2701 31.6527C30.1526 31.6438 30.1692 31.6597 29.7709 31.673C29.8884 31.0165 30.0684 30.9468 29.9518 29.46C29.8151 28.8062 29.7526 28.0024 28.7685 26.7891C28.3343 26.2985 27.8118 25.913 27.2401 25.6491C26.6685 25.3844 26.0485 25.2424 25.4192 25.2424C25.2417 25.2759 24.4951 25.2212 23.4176 25.785L21.771 27.367L15.9543 32.9436C15.0793 31.0624 14.9851 30.3644 14.976 30.2091C15.0285 29.9956 15.0035 29.7653 14.9002 29.5659C14.7552 29.2844 14.476 29.108 14.1718 29.1062L10.8333 29.0947V8.75295H26.6667C26.77 8.75295 26.8725 8.73265 26.9683 8.6929C28.985 7.86261 30.8775 6.87879 32.5475 6.01055C34.2675 5.11677 35.8525 4.29261 37.2133 3.82231C35.5958 5.63824 33.6 8.41412 31.8833 11.115C31.055 12.0344 30.5992 13.2379 30.5992 14.5147C30.5992 15.8153 31.075 17.0409 31.94 17.9674C32.8075 18.8956 33.9592 19.4073 35.1858 19.4073C35.1875 19.4073 35.19 19.4073 35.1925 19.4073C36.4167 19.4056 37.5659 18.893 38.425 17.9682L44.5842 11.3832C45.1984 12.1332 63.7267 34.7647 63.7467 34.7885C64.2167 35.3594 64.4759 36.0936 64.4759 36.8559C64.475 37.6068 64.2208 38.333 63.7591 38.9021ZM69.1667 29.0947L65.83 29.1097C65.5266 29.1106 65.2475 29.2871 65.1017 29.5694C64.9983 29.7688 64.9742 29.9991 65.0258 30.2126C65.0167 30.3591 64.9333 30.9873 64.19 32.6373C63.0992 31.305 45.2541 9.50912 45.2541 9.50912C45.2208 9.45001 44.54 8.94089 44.0325 9.46589L37.2392 16.7294C36.6925 17.318 35.965 17.6426 35.1908 17.6435C35.1892 17.6435 35.1883 17.6435 35.1867 17.6435C34.4092 17.6435 33.6775 17.318 33.1267 16.7277C32.5717 16.1338 32.2667 15.3485 32.2667 14.5156C32.2667 13.6774 32.5717 12.8885 33.1267 12.2948C34.9784 9.77118 37.1492 5.64622 40.175 3.47735C41.8808 3.10941 44.4675 4.45589 47.4659 6.015C49.1325 6.88148 51.0209 7.86442 53.0317 8.6929C53.1284 8.73261 53.2309 8.75295 53.3342 8.75295H69.1676V29.0947H69.1667ZM72.5 32.6559H70.8333V29.9735V7.87059V5.21471H72.5V32.6559Z" fill="#004080"/>
</svg>
